<?xml version="1.0" encoding="UTF-8"?>
<svg width="700pt" height="700pt" version="1.1" viewBox="0 0 700 700" xmlns="http://www.w3.org/2000/svg">
 <g>
  <path d="m437.5 175h-175c-4.6406 0-9.0938-1.8438-12.375-5.125s-5.125-7.7344-5.125-12.375v-52.5c0-4.6406 1.8438-9.0938 5.125-12.375s7.7344-5.125 12.375-5.125h175c4.6406 0 9.0938 1.8438 12.375 5.125s5.125 7.7344 5.125 12.375v52.5c0 4.6406-1.8438 9.0938-5.125 12.375s-7.7344 5.125-12.375 5.125zm-157.5-35h140v-17.5h-140z"/>
  <path d="m402.5 245h-105c-4.6406 0-9.0938-1.8438-12.375-5.125s-5.125-7.7344-5.125-12.375v-70c0-4.6406 1.8438-9.0938 5.125-12.375s7.7344-5.125 12.375-5.125h105c4.6406 0 9.0938 1.8438 12.375 5.125s5.125 7.7344 5.125 12.375v70c0 4.6406-1.8438 9.0938-5.125 12.375s-7.7344 5.125-12.375 5.125zm-87.5-35h70v-35h-70z"/>
  <path d="m437.5 472.5h-175c-9.2812 0-18.184-3.6875-24.75-10.25-6.5625-6.5664-10.25-15.469-10.25-24.75v-152.43c0-30.273 22.398-52.5 46.727-71.227v0.003906c3.0781-2.4727 6.9023-3.8281 10.848-3.8516h129.85c3.9453 0.023438 7.7695 1.3789 10.848 3.8516 24.328 19.074 46.727 40.949 46.727 71.223v152.43c0 9.2812-3.6875 18.184-10.25 24.75-6.5664 6.5625-15.469 10.25-24.75 10.25zm-146.3-227.5c-20.301 17.5-28.699 28.523-28.699 40.074v152.43h175v-152.43c0-11.551-8.3984-23.273-28.699-40.074z"/>
  <path d="m332.5 297.5h35v70h-35z"/>
  <path d="m315 315h70v35h-70z"/>
 </g>
</svg>
