<?xml version="1.0" encoding="UTF-8"?>
<svg width="700pt" height="700pt" version="1.1" viewBox="0 0 700 700" xmlns="http://www.w3.org/2000/svg">
 <path d="m526.68 103.32c-22.207-22.207-51.309-33.32-80.43-33.32s-58.223 11.113-80.43 33.32l-192.5 192.5c-44.434 44.434-44.434 116.45 0 160.84 22.207 22.223 51.309 33.336 80.43 33.336s58.223-11.113 80.43-33.32l192.5-192.5c44.434-44.414 44.434-116.45 0-160.86zm-18.551 142.31-96.25 96.25-123.74-123.74 96.25-96.25c16.52-16.535 38.484-25.637 61.863-25.637s45.344 9.1016 61.879 25.621c16.52 16.52 25.621 38.516 25.621 61.879s-9.1016 45.344-25.621 61.879z"/>
</svg>
