<?xml version="1.0" standalone="no"?>
<!DOCTYPE svg PUBLIC "-//W3C//DTD SVG 20010904//EN"
 "http://www.w3.org/TR/2001/REC-SVG-20010904/DTD/svg10.dtd">
<svg version="1.0" xmlns="http://www.w3.org/2000/svg"
 width="1201.000000pt" height="1201.000000pt" viewBox="0 0 1201.000000 1201.000000"
 preserveAspectRatio="xMidYMid meet">
<metadata>
Created by potrace 1.16, written by Peter Selinger 2001-2019
</metadata>
<g transform="translate(0.000000,1201.000000) scale(0.100000,-0.100000)"
fill="#000000" stroke="none">
<path d="M8425 10716 c-78 -35 -115 -130 -85 -213 6 -15 92 -109 190 -208
l180 -180 -675 -675 -675 -675 -407 406 c-225 224 -418 412 -430 418 -12 6
-44 11 -71 11 -54 0 -100 -25 -135 -72 -28 -37 -34 -116 -12 -159 9 -19 147
-165 306 -324 l289 -290 -1646 -1645 c-905 -905 -1652 -1657 -1660 -1672 -16
-31 -18 -105 -4 -144 6 -14 39 -56 75 -93 l64 -67 -230 -229 c-127 -127 -237
-244 -245 -262 -17 -38 -18 -101 -3 -140 5 -15 65 -83 132 -150 l121 -123
-466 -468 c-318 -318 -469 -476 -474 -495 -11 -45 1 -122 24 -154 12 -17 37
-38 56 -47 39 -18 117 -21 149 -5 12 6 230 219 484 472 l463 461 123 -121 c67
-67 135 -127 150 -132 39 -15 102 -14 140 3 18 8 135 118 262 245 l229 230 67
-64 c37 -36 79 -69 93 -75 39 -14 113 -12 144 4 15 8 767 755 1672 1660 l1645
1646 295 -294 c316 -316 329 -325 411 -310 102 19 164 126 129 221 -6 15 -194
211 -418 436 l-407 407 675 675 675 675 185 -184 c118 -118 195 -187 213 -191
45 -12 122 0 154 23 17 12 38 37 47 56 20 42 21 118 2 154 -23 42 -1637 1650
-1669 1662 -38 14 -96 12 -132 -4z m290 -1956 l-675 -675 -222 223 -223 222
675 675 675 675 222 -222 223 -223 -675 -675z m-2265 -2715 l-1580 -1580 -447
448 -448 447 222 222 223 223 237 -236 c254 -252 275 -267 352 -254 105 17
167 124 131 222 -6 15 -118 135 -248 266 l-237 237 222 222 223 223 242 -242
c236 -234 244 -242 291 -248 95 -14 178 45 194 138 12 74 -5 98 -256 350
l-236 237 223 223 222 222 237 -237 c131 -130 251 -242 266 -248 69 -25 160 5
198 67 25 40 30 124 9 163 -7 14 -116 130 -244 258 l-231 232 220 220 220 220
235 -234 c129 -129 248 -240 263 -245 105 -40 220 22 234 126 11 81 -4 102
-256 356 l-235 238 219 219 220 220 447 -447 448 -448 -1580 -1580z m-2205
-1755 l-165 -165 -222 222 -223 223 165 165 165 165 222 -222 223 -223 -165
-165z"/>
</g>
</svg>
