<?xml version="1.0" standalone="no"?>
<!DOCTYPE svg PUBLIC "-//W3C//DTD SVG 20010904//EN"
 "http://www.w3.org/TR/2001/REC-SVG-20010904/DTD/svg10.dtd">
<svg version="1.0" xmlns="http://www.w3.org/2000/svg"
 width="1280.000000pt" height="1127.000000pt" viewBox="0 0 1280.000000 1127.000000"
 preserveAspectRatio="xMidYMid meet">
<metadata>
Created by potrace 1.16, written by Peter Selinger 2001-2019
</metadata>
<g transform="translate(0.000000,1127.000000) scale(0.100000,-0.100000)"
fill="#000000" stroke="none">
<path d="M5850 8700 c-1218 -68 -2135 -283 -2932 -687 -292 -148 -470 -274
-649 -460 -205 -214 -327 -456 -347 -692 -4 -47 -4 -405 -1 -796 l5 -710 33
-100 c68 -204 161 -355 325 -523 331 -341 896 -627 1655 -836 179 -50 501
-126 531 -126 20 0 20 7 20 745 l0 744 1816 1653 c1450 1320 1812 1654 1797
1660 -55 21 -585 87 -923 114 -228 18 -1087 27 -1330 14z"/>
<path d="M8125 8153 c-204 -185 -1035 -941 -1848 -1681 l-1477 -1345 2 -711 3
-711 150 -21 c451 -65 724 -85 1260 -91 855 -10 1479 45 2195 192 864 178
1487 440 1979 833 221 177 353 356 432 589 57 169 59 198 59 872 0 684 -8 860
-40 965 -99 318 -349 606 -732 845 -214 134 -559 294 -843 391 -250 85 -699
210 -755 210 -8 0 -182 -151 -385 -337z"/>
</g>
</svg>
